<svg width="148" height="116" viewBox="0 0 148 116" fill="none" xmlns="http://www.w3.org/2000/svg">
<path d="M0 56.2354C0 25.1774 25.1774 0 56.2354 0H82.1437C141.3 0 157.03 81.6359 102.109 103.617V103.617C98.9799 104.87 95.7395 105.825 92.431 106.47L67.0019 111.43C32.2782 118.204 0 91.6135 0 56.2354V56.2354Z" fill="url(#paint0_linear_85_1038)"/>
<path d="M40.2266 26.918C41.4102 26.918 42.4824 27.0938 43.4434 27.4453C44.4043 27.7969 45.2188 28.2773 45.8867 28.8867C46.5664 29.4961 47.0879 30.2109 47.4512 31.0312C47.8145 31.8398 47.9961 32.7012 47.9961 33.6152V44.3027C47.9961 45.2168 47.8145 46.084 47.4512 46.9043C47.0879 47.7129 46.5664 48.4219 45.8867 49.0312C45.2188 49.6406 44.4043 50.1211 43.4434 50.4727C42.4824 50.8242 41.4102 51 40.2266 51H34.8125C33.6289 51 32.5566 50.8242 31.5957 50.4727C30.6348 50.1211 29.8145 49.6406 29.1348 49.0312C28.4668 48.4219 27.9512 47.7129 27.5879 46.9043C27.2246 46.084 27.043 45.2168 27.043 44.3027V33.6152C27.043 32.7012 27.2246 31.8398 27.5879 31.0312C27.9512 30.2109 28.4668 29.4961 29.1348 28.8867C29.8145 28.2773 30.6348 27.7969 31.5957 27.4453C32.5566 27.0938 33.6289 26.918 34.8125 26.918H40.2266ZM43.5312 37.5352L43.2852 36.0234L42.1602 34.916L40.332 34.7227H36.3945L35.3223 34.5117C35.2637 34.3125 35.2227 34.1367 35.1992 33.9844C35.1758 33.8203 35.1348 33.6504 35.0762 33.4746V31.6289L35.3223 30.5918L36.4824 30.3633H40.9473L42.5996 30.6973L43.0215 28.7812L40.9824 28.5H36.3594L34.6016 28.7461L33.459 29.8711L33.2305 31.3477V33.7559L33.459 35.2324L34.6016 36.3398L36.3594 36.5684H40.332L41.4043 36.7441C41.4395 36.9199 41.4805 37.084 41.5273 37.2363C41.5742 37.3887 41.6152 37.5469 41.6504 37.7109V40.0137C41.627 40.166 41.5859 40.3301 41.5273 40.5059C41.4805 40.6816 41.4395 40.8457 41.4043 40.998L40.2617 41.1738H35.9023L34.1797 40.8926L33.7402 42.791L35.7969 43.0371H40.3672L42.1602 42.8262L43.2852 41.7188L43.5312 40.207V37.5352ZM65.3886 31.3125L65.1425 29.8359L64.0175 28.7109L62.2245 28.5H57.83L54.6659 28.9395V43.0371H56.5292V30.5566L57.9003 30.3281H62.1191L63.332 30.5215L63.5077 31.5586V43.0371H65.3886V31.3125ZM62.1191 26.918C63.3027 26.918 64.3749 27.0938 65.3359 27.4453C66.2968 27.7969 67.1112 28.2773 67.7792 28.8867C68.4589 29.4961 68.9804 30.2109 69.3437 31.0312C69.707 31.8398 69.8886 32.7012 69.8886 33.6152V44.3027C69.8886 45.2168 69.707 46.084 69.3437 46.9043C68.9804 47.7129 68.4589 48.4219 67.7792 49.0312C67.1112 49.6406 66.2968 50.1211 65.3359 50.4727C64.3749 50.8242 63.3027 51 62.1191 51H56.705C55.5214 51 54.4491 50.8242 53.4882 50.4727C52.5273 50.1211 51.707 49.6406 51.0273 49.0312C50.3593 48.4219 49.8437 47.7129 49.4804 46.9043C49.1171 46.084 48.9355 45.2168 48.9355 44.3027V33.6152C48.9355 32.7012 49.1171 31.8398 49.4804 31.0312C49.8437 30.2109 50.3593 29.4961 51.0273 28.8867C51.707 28.2773 52.5273 27.7969 53.4882 27.4453C54.4491 27.0938 55.5214 26.918 56.705 26.918H62.1191ZM84.0116 26.918C85.1952 26.918 86.2674 27.0938 87.2284 27.4453C88.1893 27.7969 89.0037 28.2773 89.6717 28.8867C90.3514 29.4961 90.8729 30.2109 91.2362 31.0312C91.5995 31.8398 91.7811 32.7012 91.7811 33.6152V44.3027C91.7811 45.2168 91.5995 46.084 91.2362 46.9043C90.8729 47.7129 90.3514 48.4219 89.6717 49.0312C89.0037 49.6406 88.1893 50.1211 87.2284 50.4727C86.2674 50.8242 85.1952 51 84.0116 51H78.5975C77.4139 51 76.3416 50.8242 75.3807 50.4727C74.4198 50.1211 73.5995 49.6406 72.9198 49.0312C72.2518 48.4219 71.7362 47.7129 71.3729 46.9043C71.0096 46.084 70.828 45.2168 70.828 44.3027V33.6152C70.828 32.7012 71.0096 31.8398 71.3729 31.0312C71.7362 30.2109 72.2518 29.4961 72.9198 28.8867C73.5995 28.2773 74.4198 27.7969 75.3807 27.4453C76.3416 27.0938 77.4139 26.918 78.5975 26.918H84.0116ZM85.6287 43.0371H87.6327L86.244 29.9414L85.1541 28.8516L82.8162 28.5H80.9354L78.5975 28.8516L77.5252 29.9414L76.0838 43.0371H78.1756L78.4569 39.293L78.6327 37.6758H85.119L85.2948 39.293L85.6287 43.0371ZM84.3983 30.627C84.4803 31.5762 84.5741 32.4727 84.6795 33.3164C84.785 34.1602 84.8846 35.0508 84.9784 35.9883H78.7909L79.3182 30.627C79.6463 30.5918 79.9276 30.5508 80.162 30.5039C80.408 30.457 80.6952 30.4102 81.0233 30.3633H82.7459L84.3983 30.627ZM105.904 26.918C107.088 26.918 108.16 27.0938 109.121 27.4453C110.082 27.7969 110.896 28.2773 111.564 28.8867C112.244 29.4961 112.765 30.2109 113.129 31.0312C113.492 31.8398 113.674 32.7012 113.674 33.6152V44.3027C113.674 45.2168 113.492 46.084 113.129 46.9043C112.765 47.7129 112.244 48.4219 111.564 49.0312C110.896 49.6406 110.082 50.1211 109.121 50.4727C108.16 50.8242 107.088 51 105.904 51H100.49C99.3064 51 98.2341 50.8242 97.2732 50.4727C96.3123 50.1211 95.492 49.6406 94.8123 49.0312C94.1443 48.4219 93.6287 47.7129 93.2654 46.9043C92.9021 46.084 92.7205 45.2168 92.7205 44.3027V33.6152C92.7205 32.7012 92.9021 31.8398 93.2654 31.0312C93.6287 30.2109 94.1443 29.4961 94.8123 28.8867C95.492 28.2773 96.3123 27.7969 97.2732 27.4453C98.2341 27.0938 99.3064 26.918 100.49 26.918H105.904ZM109.138 31.3477L108.892 29.8711L107.767 28.7461L105.974 28.5H99.4177V43.0371H101.246V37.8516H105.974L107.767 37.6406L108.892 36.5332L109.138 35.0215V31.3477ZM107.011 35.8125L105.869 35.9883H101.246V30.3633H105.869L107.082 30.5566L107.258 31.5938V34.8281L107.011 35.8125Z" fill="white"/>
<path d="M42.6582 62.541V63.5762H48.3027V62.541H46.0078V56.5352H48.3027V55.5H42.6582V56.5352H44.9629V62.541H42.6582ZM46.4473 54.6211C47.1048 54.6211 47.7005 54.7188 48.2344 54.9141C48.7682 55.1094 49.2207 55.3763 49.5918 55.7148C49.9694 56.0534 50.2591 56.4505 50.4609 56.9062C50.6628 57.3555 50.7637 57.834 50.7637 58.3418V64.2793C50.7637 64.7871 50.6628 65.2689 50.4609 65.7246C50.2591 66.1738 49.9694 66.5677 49.5918 66.9062C49.2207 67.2448 48.7682 67.5117 48.2344 67.707C47.7005 67.9023 47.1048 68 46.4473 68H43.4395C42.7819 68 42.1862 67.9023 41.6523 67.707C41.1185 67.5117 40.6628 67.2448 40.2852 66.9062C39.9141 66.5677 39.6276 66.1738 39.4258 65.7246C39.224 65.2689 39.123 64.7871 39.123 64.2793V58.3418C39.123 57.834 39.224 57.3555 39.4258 56.9062C39.6276 56.4505 39.9141 56.0534 40.2852 55.7148C40.6628 55.3763 41.1185 55.1094 41.6523 54.9141C42.1862 54.7188 42.7819 54.6211 43.4395 54.6211H46.4473ZM60.4262 57.0625L60.2895 56.2422L59.6645 55.6172L58.6684 55.5H56.227L54.4691 55.7441V63.5762H55.5043V56.6426L56.266 56.5156H58.6098L59.2836 56.623L59.3813 57.1992V63.5762H60.4262V57.0625ZM58.6098 54.6211C59.2673 54.6211 59.863 54.7188 60.3969 54.9141C60.9307 55.1094 61.3832 55.3763 61.7543 55.7148C62.1319 56.0534 62.4216 56.4505 62.6234 56.9062C62.8253 57.3555 62.9262 57.834 62.9262 58.3418V64.2793C62.9262 64.7871 62.8253 65.2689 62.6234 65.7246C62.4216 66.1738 62.1319 66.5677 61.7543 66.9062C61.3832 67.2448 60.9307 67.5117 60.3969 67.707C59.863 67.9023 59.2673 68 58.6098 68H55.602C54.9444 68 54.3487 67.9023 53.8148 67.707C53.281 67.5117 52.8253 67.2448 52.4477 66.9062C52.0766 66.5677 51.7901 66.1738 51.5883 65.7246C51.3865 65.2689 51.2855 64.7871 51.2855 64.2793V58.3418C51.2855 57.834 51.3865 57.3555 51.5883 56.9062C51.7901 56.4505 52.0766 56.0534 52.4477 55.7148C52.8253 55.3763 53.281 55.1094 53.8148 54.9141C54.3487 54.7188 54.9444 54.6211 55.602 54.6211H58.6098ZM69.6297 63.6445L70.284 63.459L70.8699 62.8828L72.784 55.6953L71.6512 55.5L69.8836 62.4824L69.6688 62.5605L69.4051 62.502L67.6473 55.5L66.5047 55.6953L68.4285 62.8828L69.0047 63.459L69.6297 63.6445ZM70.7723 54.6211C71.4298 54.6211 72.0255 54.7188 72.5594 54.9141C73.0932 55.1094 73.5457 55.3763 73.9168 55.7148C74.2944 56.0534 74.5841 56.4505 74.7859 56.9062C74.9878 57.3555 75.0887 57.834 75.0887 58.3418V64.2793C75.0887 64.7871 74.9878 65.2689 74.7859 65.7246C74.5841 66.1738 74.2944 66.5677 73.9168 66.9062C73.5457 67.2448 73.0932 67.5117 72.5594 67.707C72.0255 67.9023 71.4298 68 70.7723 68H67.7645C67.1069 68 66.5112 67.9023 65.9773 67.707C65.4435 67.5117 64.9878 67.2448 64.6102 66.9062C64.2391 66.5677 63.9526 66.1738 63.7508 65.7246C63.549 65.2689 63.448 64.7871 63.448 64.2793V58.3418C63.448 57.834 63.549 57.3555 63.7508 56.9062C63.9526 56.4505 64.2391 56.0534 64.6102 55.7148C64.9878 55.3763 65.4435 55.1094 65.9773 54.9141C66.5112 54.7188 67.1069 54.6211 67.7645 54.6211H70.7723ZM82.9348 54.6211C83.5923 54.6211 84.188 54.7188 84.7219 54.9141C85.2557 55.1094 85.7082 55.3763 86.0793 55.7148C86.4569 56.0534 86.7466 56.4505 86.9484 56.9062C87.1503 57.3555 87.2512 57.834 87.2512 58.3418V64.2793C87.2512 64.7871 87.1503 65.2689 86.9484 65.7246C86.7466 66.1738 86.4569 66.5677 86.0793 66.9062C85.7082 67.2448 85.2557 67.5117 84.7219 67.707C84.188 67.9023 83.5923 68 82.9348 68H79.927C79.2694 68 78.6737 67.9023 78.1398 67.707C77.606 67.5117 77.1503 67.2448 76.7727 66.9062C76.4016 66.5677 76.1151 66.1738 75.9133 65.7246C75.7115 65.2689 75.6105 64.7871 75.6105 64.2793V58.3418C75.6105 57.834 75.7115 57.3555 75.9133 56.9062C76.1151 56.4505 76.4016 56.0534 76.7727 55.7148C77.1503 55.3763 77.606 55.1094 78.1398 54.9141C78.6737 54.7188 79.2694 54.6211 79.927 54.6211H82.9348ZM84.9465 57.082L84.8098 56.2617L84.1945 55.6367L83.1887 55.5H80.5715L79.5754 55.6367L78.9504 56.2617L78.8332 57.082V62.0039L78.9504 62.8438L79.5949 63.459L80.5715 63.5762H83.1887L84.1945 63.459L84.8098 62.8438L84.9465 62.0039V57.082ZM83.7746 62.4434L83.1301 62.541H80.6301L79.9953 62.4434L79.8488 61.8574V57.1797L79.9465 56.6426L80.6301 56.5352H83.1301L83.8137 56.6426L83.9113 57.2188V61.8965L83.7746 62.4434ZM91.3082 62.541V63.5762H96.9527V62.541H94.6578V56.5352H96.9527V55.5H91.3082V56.5352H93.6129V62.541H91.3082ZM95.0973 54.6211C95.7548 54.6211 96.3505 54.7188 96.8844 54.9141C97.4182 55.1094 97.8707 55.3763 98.2418 55.7148C98.6194 56.0534 98.9091 56.4505 99.1109 56.9062C99.3128 57.3555 99.4137 57.834 99.4137 58.3418V64.2793C99.4137 64.7871 99.3128 65.2689 99.1109 65.7246C98.9091 66.1738 98.6194 66.5677 98.2418 66.9062C97.8707 67.2448 97.4182 67.5117 96.8844 67.707C96.3505 67.9023 95.7548 68 95.0973 68H92.0895C91.4319 68 90.8362 67.9023 90.3023 67.707C89.7685 67.5117 89.3128 67.2448 88.9352 66.9062C88.5641 66.5677 88.2776 66.1738 88.0758 65.7246C87.874 65.2689 87.773 64.7871 87.773 64.2793V58.3418C87.773 57.834 87.874 57.3555 88.0758 56.9062C88.2776 56.4505 88.5641 56.0534 88.9352 55.7148C89.3128 55.3763 89.7685 55.1094 90.3023 54.9141C90.8362 54.7188 91.4319 54.6211 92.0895 54.6211H95.0973ZM107.133 55.5H104.779L103.773 55.6172L103.158 56.2422L103.012 57.0625V62.0234L103.158 62.8438L103.793 63.459L104.779 63.5762H107.133L108.275 63.4395L108.031 62.3848L107.113 62.541H104.838L104.193 62.4434L104.057 61.8574V57.1602L104.154 56.623L104.838 56.5156H107.074L108.08 56.6816L108.275 55.6367L107.133 55.5ZM107.26 54.6211C107.917 54.6211 108.513 54.7188 109.047 54.9141C109.581 55.1094 110.033 55.3763 110.404 55.7148C110.782 56.0534 111.072 56.4505 111.273 56.9062C111.475 57.3555 111.576 57.834 111.576 58.3418V64.2793C111.576 64.7871 111.475 65.2689 111.273 65.7246C111.072 66.1738 110.782 66.5677 110.404 66.9062C110.033 67.2448 109.581 67.5117 109.047 67.707C108.513 67.9023 107.917 68 107.26 68H104.252C103.594 68 102.999 67.9023 102.465 67.707C101.931 67.5117 101.475 67.2448 101.098 66.9062C100.727 66.5677 100.44 66.1738 100.238 65.7246C100.036 65.2689 99.9355 64.7871 99.9355 64.2793V58.3418C99.9355 57.834 100.036 57.3555 100.238 56.9062C100.44 56.4505 100.727 56.0534 101.098 55.7148C101.475 55.3763 101.931 55.1094 102.465 54.9141C102.999 54.7188 103.594 54.6211 104.252 54.6211H107.26ZM119.422 54.6211C120.08 54.6211 120.676 54.7188 121.209 54.9141C121.743 55.1094 122.196 55.3763 122.567 55.7148C122.944 56.0534 123.234 56.4505 123.436 56.9062C123.638 57.3555 123.739 57.834 123.739 58.3418V64.2793C123.739 64.7871 123.638 65.2689 123.436 65.7246C123.234 66.1738 122.944 66.5677 122.567 66.9062C122.196 67.2448 121.743 67.5117 121.209 67.707C120.676 67.9023 120.08 68 119.422 68H116.414C115.757 68 115.161 67.9023 114.627 67.707C114.093 67.5117 113.638 67.2448 113.26 66.9062C112.889 66.5677 112.603 66.1738 112.401 65.7246C112.199 65.2689 112.098 64.7871 112.098 64.2793V58.3418C112.098 57.834 112.199 57.3555 112.401 56.9062C112.603 56.4505 112.889 56.0534 113.26 55.7148C113.638 55.3763 114.093 55.1094 114.627 54.9141C115.161 54.7188 115.757 54.6211 116.414 54.6211H119.422ZM120.702 57.0625L120.555 56.2422L119.94 55.6172L118.954 55.5H116.834L115.858 55.6172L115.243 56.2422L115.096 57.0625V61.7012L115.243 62.5215L115.858 63.1367L116.834 63.2637H119.295L120.438 63.1172L120.194 62.0625L119.276 62.2188H116.903L116.278 62.1211L116.141 61.5352V59.5234H120.702V57.0625ZM116.141 58.498V57.1797L116.219 56.623L116.903 56.5156H118.895L119.559 56.623L119.657 57.1992V58.498H116.141Z" fill="url(#paint1_linear_85_1038)"/>
<defs>
<linearGradient id="paint0_linear_85_1038" x1="108.953" y1="-33.5" x2="108.953" y2="124.5" gradientUnits="userSpaceOnUse">
<stop stop-color="#2CB5D3"/>
<stop offset="1" stop-color="#4892A3" stop-opacity="0.6"/>
</linearGradient>
<linearGradient id="paint1_linear_85_1038" x1="81.8394" y1="48" x2="81.8394" y2="71" gradientUnits="userSpaceOnUse">
<stop stop-color="white"/>
<stop offset="1" stop-color="white" stop-opacity="0.56"/>
</linearGradient>
</defs>
</svg>
